# xmcd
#
# Track frame offsets: 
#        150
#        2957
#        9777
#        14482
#        35655
#        41055
#        46310
#        49622
#        52057
#        55245
#        59420
#        61230
#        64915
#        68692
#        71342
#        75795
#        78517
#        84982
#        89547
#        93675
#        97682
#        103355
#        109532
#        111780
#        117300
#        121915
#        127697
#        134190
#        139697
#        141130
#        146472
#        149752
#        164902
#        173857
#        183937
#        192045
#        196950
#        203515
#        223865
#        228522
#        238412
#        248900
#        260127
#        274017
#        278660
#        282625
#        285005
#        287295
#        290862
#        293255
#        305382
#        311177
#        315185
#        317987
#        321172
#        325075
#        327870
#
# Disc length: 4448 seconds
#
# Revision: 0
# Processed by: cddbd v1.5.2PL0 Copyright (c) Steve Scherf et al.
# Submitted via: ExactAudioCopy v0.95b4
#
DISCID=57115e39
DTITLE=Keith Wyatt - Beyond Basics - Acoustic Slide Guitar
DYEAR=1997
DGENRE=Acoustic
TTITLE0=Introduction
TTITLE1=Introduction
TTITLE2=Tune Up
TTITLE3=Types of Slides
TTITLE4=Left and Right Hand Techniques
TTITLE5=Example 1
TTITLE6=Example 2a
TTITLE7=Example 2b
TTITLE8=Example 3
TTITLE9=Example 4 - Damping
TTITLE10=Example 4b
TTITLE11=Example 5a
TTITLE12=Example 5b
TTITLE13=Example 5c
TTITLE14=Example 5d
TTITLE15=Example 6
TTITLE16=Dropped D and Open G Tunings
TTITLE17=Example 7a
TTITLE18=Example 7b
TTITLE19=Example 8
TTITLE20=Example 9a
TTITLE21=Example 9b
TTITLE22=Example 10
TTITLE23=Example 11
TTITLE24=Example 12
TTITLE25=Example 13
TTITLE26=Example 14
TTITLE27=Example 15a
TTITLE28=Example 15b
TTITLE29=Example 16
TTITLE30=Example 17
TTITLE31=Example 18 - Call and Response
TTITLE32=Example 19
TTITLE33=Example 20 - More Call and Response
TTITLE34=Example 21
TTITLE35=Example 22
TTITLE36=Example 23
TTITLE37=Example 24a
TTITLE38=Example 24b
TTITLE39=The Capo - Example 25
TTITLE40=Example 26a
TTITLE41=Example 26b
TTITLE42=Example 27 - Call and Response in Open D
TTITLE43=Example 28a
TTITLE44=Example 28b
TTITLE45=Example 29
TTITLE46=Example 30a
TTITLE47=Example 30b
TTITLE48=Example 31a - Elmore's Open D Blues
TTITLE49=Example 31b
TTITLE50=Example 32a
TTITLE51=Example 32b
TTITLE52=Example 33
TTITLE53=Example 34
TTITLE54=Putting it All Together
TTITLE55=Example 35 - G Blues
TTITLE56=Example 36 - Muddy Waters Blues
EXTD=
EXTT0=
EXTT1=
EXTT2=
EXTT3=
EXTT4=
EXTT5=
EXTT6=
EXTT7=
EXTT8=
EXTT9=
EXTT10=
EXTT11=
EXTT12=
EXTT13=
EXTT14=
EXTT15=
EXTT16=
EXTT17=
EXTT18=
EXTT19=
EXTT20=
EXTT21=
EXTT22=
EXTT23=
EXTT24=
EXTT25=
EXTT26=
EXTT27=
EXTT28=
EXTT29=
EXTT30=
EXTT31=
EXTT32=
EXTT33=
EXTT34=
EXTT35=
EXTT36=
EXTT37=
EXTT38=
EXTT39=
EXTT40=
EXTT41=
EXTT42=
EXTT43=
EXTT44=
EXTT45=
EXTT46=
EXTT47=
EXTT48=
EXTT49=
EXTT50=
EXTT51=
EXTT52=
EXTT53=
EXTT54=
EXTT55=
EXTT56=
PLAYORDER=
